<?xml version="1.0" encoding="UTF-8" standalone="no" ?>
<!DOCTYPE svg PUBLIC "-//W3C//DTD SVG 1.1//EN" "http://www.w3.org/Graphics/SVG/1.1/DTD/svg11.dtd">
<svg xmlns="http://www.w3.org/2000/svg" xmlns:xlink="http://www.w3.org/1999/xlink" version="1.1" width="1080" height="1080" viewBox="0 0 1080 1080" xml:space="preserve">
<desc>Created with Fabric.js 5.2.4</desc>
<defs>
</defs>
<rect x="0" y="0" width="100%" height="100%" fill="transparent"></rect>
<g transform="matrix(1 0 0 1 540 540)" id="0e160238-62c9-4c94-b3df-3af2d05f829d"  >
</g>
<g transform="matrix(1 0 0 1 540 540)" id="45194a98-8444-4f0f-a09a-f17ac83b274c"  >
<rect style="stroke: none; stroke-width: 1; stroke-dasharray: none; stroke-linecap: butt; stroke-dashoffset: 0; stroke-linejoin: miter; stroke-miterlimit: 4; fill: rgb(255,255,255); fill-rule: nonzero; opacity: 1;" vector-effect="non-scaling-stroke"  x="-540" y="-540" rx="0" ry="0" width="1080" height="1080" />
</g>
<g transform="matrix(13.76 0 0 13.76 540 540)" id="fb68e1dc-3a0d-421d-8ef0-b039922067c6"  >
<circle style="stroke: rgb(234,234,234); stroke-width: 0; stroke-dasharray: none; stroke-linecap: butt; stroke-dashoffset: 0; stroke-linejoin: miter; stroke-miterlimit: 4; fill: rgb(61,233,53); fill-rule: nonzero; opacity: 1;" vector-effect="non-scaling-stroke"  cx="0" cy="0" r="35" />
</g>
<g transform="matrix(1 0 0 1 540 540)"  >
<g style="" vector-effect="non-scaling-stroke"   >
		<g transform="matrix(1.7 0 0 1.7 0 0)"  >
<path style="stroke: none; stroke-width: 1; stroke-dasharray: none; stroke-linecap: butt; stroke-dashoffset: 0; stroke-linejoin: miter; stroke-miterlimit: 4; fill: rgb(0,0,0); fill-rule: nonzero; opacity: 1;" vector-effect="non-scaling-stroke"  transform=" translate(-235.79, -235.79)" d="M 365.984 94.414 C 357.572 90.604 347.667 94.336 343.858 102.745 L 325.735 142.761 C 325.735 142.761 281.46500000000003 160.73399999999998 273.661 163.263 C 258.528 168.165 240.536 166.631 212.836 173.978 L 160.33700000000002 186.93 L 123.47400000000002 159.409 C 130.41400000000002 147.363 142.12 127.03399999999999 145.04700000000003 121.89499999999998 C 148.21400000000003 116.33199999999998 155.33500000000004 108.80999999999997 158.93600000000004 105.16799999999998 C 166.48600000000005 106.30299999999998 174.45200000000003 105.29999999999998 182.22500000000002 102.23899999999998 C 194.48200000000003 97.41399999999997 205.13800000000003 87.90099999999998 212.23000000000002 75.44799999999998 C 219.31500000000003 63.000999999999976 222.05800000000002 48.98199999999998 219.95100000000002 35.97299999999998 C 217.73800000000003 22.317999999999977 210.51100000000002 11.375999999999976 199.60000000000002 5.162999999999979 C 193.581 1.738 186.945 0 179.879 0 C 174.197 0 168.422 1.14 162.714 3.388 C 150.451 8.216000000000001 139.796 17.73 132.711 30.177 C 125.62300000000002 42.622 122.88000000000001 56.641999999999996 124.98700000000001 69.65299999999999 C 126.32000000000001 77.88199999999999 129.55800000000002 85.30399999999999 134.37300000000002 91.195 C 133.132 96.04499999999999 130.383 105.82199999999999 127.06100000000002 111.65599999999999 C 124.05700000000002 116.928 108.40200000000002 144.108 103.25800000000002 153.041 L 102.90700000000002 153.647 C 101.67900000000003 154.296 100.52800000000002 155.141 99.51400000000002 156.201 C 94.39300000000003 161.545 94.56900000000002 170.03199999999998 99.91600000000003 175.15699999999998 L 145.68200000000002 219.03199999999998 C 148.95600000000002 222.129 153.627 223.796 158.42800000000003 223.05399999999997 L 160.53600000000003 222.72799999999998 L 205.97400000000005 215.72799999999998 L 218.73600000000005 309.79499999999996 L 185.58 448.468 C 183.83700000000002 457.684 188.966 467.076 198.067 470.39000000000004 C 208.184 474.07500000000005 219.372 468.86100000000005 223.056 458.744 L 270.05600000000004 343.69000000000005 L 288.43000000000006 382.52400000000006 L 275.25200000000007 449.01800000000003 C 273.2010000000001 459.793 281.77900000000005 468.646 292.13200000000006 470.281 C 303.07700000000006 472.008 312.58700000000005 464.543 315.07400000000007 453.592 L 333.9670000000001 380.81 C 334.4470000000001 377.699 334.1780000000001 374.345 332.99700000000007 371.187 L 332.32900000000006 369.398 L 313.74000000000007 319.656 L 296.9700000000001 197.555 L 346.7610000000001 175.273 L 348.1240000000001 174.66299999999998 C 352.19900000000007 172.82099999999997 355.5540000000001 169.38799999999998 357.1710000000001 164.84199999999998 L 374.8330000000001 115.24799999999999 C 377.69 107.158 373.947 98.023 365.984 94.414 z M 146.785 38.193 C 154.389 24.836999999999996 167.35399999999998 16.206 179.816 16.206 C 184.087 16.206 188.046 17.227999999999998 191.585 19.24 C 205.746 27.304 208.691 48.925 198.15 67.437 C 190.549 80.792 177.584 89.422 165.12 89.422 C 160.84900000000002 89.422 156.889 88.401 153.353 86.387 C 146.59 82.538 142.15300000000002 75.46000000000001 140.859 66.458 C 139.537 57.266 141.641 47.227 146.785 38.193 z" stroke-linecap="round" />
</g>
		<g transform="matrix(1.7 0 0 1.7 6.03 -190.21)"  >
<path style="stroke: none; stroke-width: 1; stroke-dasharray: none; stroke-linecap: butt; stroke-dashoffset: 0; stroke-linejoin: miter; stroke-miterlimit: 4; fill: rgb(0,0,0); fill-rule: nonzero; opacity: 1;" vector-effect="non-scaling-stroke"  transform=" translate(-239.34, -123.66)" d="M 200.009 119.061 C 197.464 140.784 213.01399999999998 160.449 234.737 162.991 C 256.45799999999997 165.53300000000002 276.127 149.983 278.668 128.26100000000002 C 281.208 106.54100000000003 265.657 86.87200000000001 243.936 84.33200000000002 C 222.214 81.789 202.546 97.339 200.009 119.061 z" stroke-linecap="round" />
</g>
		<g transform="matrix(1.7 0 0 1.7 176.19 -304.52)"  >
<circle style="stroke: none; stroke-width: 1; stroke-dasharray: none; stroke-linecap: butt; stroke-dashoffset: 0; stroke-linejoin: miter; stroke-miterlimit: 4; fill: rgb(0,0,0); fill-rule: nonzero; opacity: 1;" vector-effect="non-scaling-stroke"  cx="0" cy="0" r="14.961" />
</g>
</g>
</g>
</svg>